<svg width="100" height="116" viewBox="0 0 100 116" fill="none" xmlns="http://www.w3.org/2000/svg">
<path d="M75.2 113.6H95.68V51.3599H51.68V71.68H72.48V77.28C72.48 88.16 62.72 93.92 50.56 93.92C35.52 93.92 25.76 85.28 25.76 66.72V48.8C25.76 30.24 35.52 21.6 50.56 21.6C63.52 21.6 70.4 28.6399 73.76 37.2799L93.6 25.92C85.28 8.8 70.4 0 50.56 0C20.32 0 0 20.64 0 58.24C0 95.68 20.16 115.52 45.76 115.52C62.56 115.52 72.8 107.04 74.4 95.84H75.2V113.6Z" fill="#841880"/>
<g opacity="0.5">
<path fill-rule="evenodd" clip-rule="evenodd" d="M29.7612 49.6947V48.8C29.7612 30.24 39.5211 21.6 54.5611 21.6C67.5211 21.6 74.4012 28.6399 77.7612 37.2799L97.6012 25.92C89.2812 8.8 74.4011 0 54.5611 0C26.1851 0 6.5438 18.1733 4.23047 51.4813L29.7612 49.6947Z" fill="#E94056"/>
</g>
<g opacity="0.5">
<path fill-rule="evenodd" clip-rule="evenodd" d="M99.6814 92.7906V73.4573L76.4814 75.0826V77.2799C76.4814 88.1599 66.7214 93.9199 54.5614 93.9199C43.08 93.9199 34.6761 88.8852 31.3414 78.2452L6.66406 79.9746C8.64406 87.3293 11.6614 93.5785 15.4947 98.6892L99.6814 92.7906Z" fill="#E94056"/>
</g>
<path fill-rule="evenodd" clip-rule="evenodd" d="M95.68 73.4213V51.3599H51.68V71.68H72.48V75.0466L95.68 73.4213ZM27.3293 78.2106C26.3027 74.9213 25.76 71.096 25.76 66.72V49.468L0.24528 51.256C0.0826133 53.5147 0 55.8427 0 58.24C0 66.296 0.93332 73.536 2.65332 79.94L27.3293 78.2106Z" fill="#E94056"/>
<path fill-rule="evenodd" clip-rule="evenodd" d="M95.679 93.012V113.6H75.199V95.84H74.399C72.799 107.04 62.559 115.52 45.759 115.52C32.0937 115.52 19.9777 109.867 11.6523 98.9L95.679 93.012Z" fill="#FF3F2A"/>
</svg>
